<svg width="14" height="8" viewBox="0 0 14 8" fill="none" xmlns="http://www.w3.org/2000/svg">
<path d="M7.00391 0.5C7.66502 0.5 8.30055 0.7559 8.77734 1.21387L13.3613 5.78711L13.3623 5.78809C13.4092 5.83457 13.4463 5.89025 13.4717 5.95117C13.497 6.01205 13.5098 6.07761 13.5098 6.14355C13.5097 6.2095 13.497 6.27507 13.4717 6.33594C13.4464 6.39666 13.409 6.45167 13.3623 6.49805C13.3156 6.54434 13.2601 6.58156 13.1992 6.60645C13.1383 6.63133 13.0726 6.64394 13.0068 6.64355H13.001C12.9354 6.6439 12.8703 6.63121 12.8096 6.60645C12.7792 6.59404 12.7499 6.57854 12.7227 6.56055L12.6465 6.49805L8.06836 1.91016C7.92913 1.77003 7.7634 1.65899 7.58105 1.58301C7.39827 1.50686 7.20192 1.46777 7.00391 1.46777C6.80595 1.4678 6.60949 1.50688 6.42676 1.58301C6.24467 1.65893 6.07951 1.77025 5.94043 1.91016L1.36035 6.5C1.26583 6.59442 1.13751 6.64746 1.00391 6.64746C0.870281 6.64741 0.741952 6.59449 0.647461 6.5C0.552971 6.40551 0.500051 6.27718 0.5 6.14355C0.5 6.07736 0.512753 6.01135 0.538086 5.9502C0.550746 5.91965 0.566679 5.89064 0.584961 5.86328L0.647461 5.78711L5.23047 1.21387C5.70724 0.755827 6.34277 0.500048 7.00391 0.5Z" fill="#0F172A" stroke="black"/>
</svg>
