<svg width="15" height="8" viewBox="0 0 15 8" fill="none" xmlns="http://www.w3.org/2000/svg">
<path d="M7.0061 6.64746C6.34499 6.64746 5.70946 6.39156 5.23267 5.93359L0.648682 1.36035L0.647706 1.35937C0.600848 1.31289 0.56371 1.2572 0.538331 1.19629C0.512994 1.13541 0.500245 1.06985 0.500245 1.00391C0.50027 0.937963 0.512972 0.87239 0.538331 0.811522C0.563655 0.750796 0.601028 0.695791 0.647706 0.649413C0.694382 0.603116 0.749943 0.565895 0.810792 0.541014C0.871711 0.516132 0.937372 0.503525 1.00317 0.503905L1.00903 0.503905C1.07464 0.503555 1.13969 0.516253 1.20044 0.541015C1.2308 0.553415 1.26012 0.568921 1.28735 0.586913L1.36353 0.649413L5.94165 5.2373C6.08088 5.37743 6.24661 5.48847 6.42896 5.56445C6.61174 5.64061 6.80809 5.67969 7.0061 5.67969C7.20406 5.67966 7.40052 5.64058 7.58325 5.56445C7.76534 5.48853 7.9305 5.37721 8.06958 5.2373L12.6497 0.647461C12.7442 0.553045 12.8725 0.5 13.0061 0.5C13.1397 0.500049 13.2681 0.552973 13.3625 0.647461C13.457 0.741951 13.51 0.870284 13.51 1.00391C13.51 1.0701 13.4973 1.13611 13.4719 1.19727C13.4593 1.22781 13.4433 1.25682 13.425 1.28418L13.3625 1.36035L8.77954 5.93359C8.30277 6.39163 7.66724 6.64741 7.0061 6.64746Z" fill="#0F172A" stroke="black"/>
</svg>
